<svg xmlns="http://www.w3.org/2000/svg" viewBox="0 0 64 64">
  <circle cx="32" cy="32" r="30" fill="#F7931A"/>
  <path d="M44.374 29.217c.623-4.164-2.548-6.4-6.89-7.893l1.408-5.652-3.44-.856-1.37 5.5c-.904-.225-1.832-.437-2.755-.647l1.38-5.53-3.437-.856-1.41 5.65c-.748-.17-1.483-.338-2.196-.515l.004-.018-4.743-1.185-.915 3.674s2.55.586 2.497.622c1.392.347 1.644 1.267 1.602 1.995l-1.605 6.437c.096.024.22.06.358.114-.115-.028-.238-.06-.364-.09l-2.25 9.02c-.17.423-.602.058-1.994-.288.044.064-2.498-.624-2.498-.624l-1.707 3.936 4.47 1.115c.834.21 1.65.427 2.455.633l-1.423 5.71 3.436.856 1.41-5.653c.938.254 1.85.49 2.742.712l-1.404 5.62 3.44.856 1.422-5.696c5.86 1.108 10.266.66 12.114-4.636 1.492-4.26-.074-6.716-3.148-8.32 2.24-.518 3.928-1.992 4.38-5.036zm-7.833 10.99c-1.06 4.26-8.23 1.957-10.55 1.38l1.882-7.54c2.32.58 9.763 1.728 8.668 6.16zm1.06-11.06c-.966 3.873-6.923 1.905-8.864 1.422l1.707-6.84c1.94.483 8.17 1.384 7.157 5.417z" fill="#FFF"/>
</svg>